<svg width="24" height="24" viewBox="0 0 24 24" fill="none" xmlns="http://www.w3.org/2000/svg">
<path d="M10.7692 6.69303H12.6154V3.6161C12.6154 3.3798 12.7508 3.16441 12.9637 3.06103C13.1778 2.95887 13.4302 2.98595 13.6148 3.13487L19.7686 8.05795C19.9151 8.1761 20 8.3521 20 8.53918C20 8.72626 19.9151 8.90226 19.7686 9.02041L13.6148 13.9435C13.504 14.0321 13.3674 14.0776 13.2308 14.0776C13.1397 14.0776 13.0486 14.0579 12.9637 14.0173C12.7508 13.9139 12.6154 13.6986 12.6154 13.4623V10.3853H10.7692C9.072 10.3853 7.69231 11.7663 7.69231 13.4623V21H4V13.4623C4 9.72934 7.03754 6.69303 10.7692 6.69303Z" fill="white"/>
</svg>
