<svg width="24" height="24" viewBox="0 0 24 24" fill="none" xmlns="http://www.w3.org/2000/svg">
<path d="M17.8141 9.2565L12.5641 3.2565C12.4216 3.0945 12.2161 3 12.0001 3C11.7841 3 11.5786 3.0945 11.4361 3.2565L6.18609 9.2565C5.99259 9.4785 5.94459 9.792 6.06759 10.0605C6.18909 10.3275 6.45609 10.5 6.75009 10.5H9.75009V20.25C9.75009 20.664 10.0861 21 10.5001 21H13.5001C13.9141 21 14.2501 20.664 14.2501 20.25V10.5H17.2501C17.5441 10.5 17.8111 10.329 17.9326 10.0605C18.0541 9.792 18.0091 9.477 17.8141 9.2565Z" fill="white"/>
</svg>
