<svg width="24" height="24" viewBox="0 0 24 24" fill="none" xmlns="http://www.w3.org/2000/svg">
<path d="M13.2308 6.69303H11.3846V3.6161C11.3846 3.3798 11.2492 3.16441 11.0363 3.06103C10.8222 2.95887 10.5698 2.98595 10.3852 3.13487L4.23138 8.05795C4.08492 8.1761 4 8.3521 4 8.53918C4 8.72626 4.08492 8.90226 4.23138 9.02041L10.3852 13.9435C10.496 14.0321 10.6326 14.0776 10.7692 14.0776C10.8603 14.0776 10.9514 14.0579 11.0363 14.0173C11.2492 13.9139 11.3846 13.6986 11.3846 13.4623V10.3853H13.2308C14.928 10.3853 16.3077 11.7663 16.3077 13.4623V21H20V13.4623C20 9.72934 16.9625 6.69303 13.2308 6.69303Z" fill="white"/>
</svg>
