<svg width="36" height="36" viewBox="0 0 36 36" fill="none" xmlns="http://www.w3.org/2000/svg">
<g clip-path="url(#clip0)">
<path d="M19.4792 27.174C19.757 27.1915 20.0328 27.2002 20.3067 27.2002C23.4507 27.2001 26.3121 26.0563 28.4346 23.934C28.993 23.3756 29.5396 22.2661 28.9723 20.152C28.582 18.698 26.8349 15.2687 25.2075 13.5315C24.9877 13.2114 24.5501 13.1299 24.23 13.3498C23.9098 13.5695 23.8284 14.0073 24.0482 14.3274C25.5 16 27.2646 19.2148 27.614 20.5165C27.9207 21.6601 27.859 22.5207 27.4399 22.9397C26.8071 23.5726 25.2313 23.3839 23.2254 22.435C21.7254 21.7256 20.0983 20.6558 18.4791 19.3259C19.433 18.1594 19.5042 16.5077 18.693 15.2687L22.3523 11.6094C22.674 11.7725 23.0266 11.8545 23.3792 11.8545C23.96 11.8545 24.5407 11.6335 24.9827 11.1915C25.8668 10.3073 25.8668 8.86878 24.9827 7.98467C24.0986 7.10064 22.6599 7.10057 21.7758 7.98467C21.0653 8.69525 20.9263 9.76379 21.358 10.615L17.6989 14.2741C17.1442 13.9094 16.4953 13.7133 15.816 13.7133C15.0159 13.7133 14.2576 13.985 13.6462 14.4843C12.3342 12.8806 11.2781 11.2707 10.5755 9.78517C9.62668 7.77901 9.43796 6.20352 10.0708 5.57064C11.0175 4.62388 14.3411 5.45722 18.6357 8.86632C18.9399 9.10771 19.3822 9.05694 19.6236 8.75277C19.865 8.4486 19.8142 8.00633 19.5101 7.76488C17.4016 6.09116 15.3435 4.87749 13.5584 4.25509C11.0093 3.3662 9.71457 3.93868 9.07712 4.57571C6.76989 6.88302 5.61859 10.0639 5.83656 13.5315C6.05235 16.9658 7.58861 20.2746 10.1623 22.8483C10.6187 23.3048 11.0987 23.7279 11.598 24.1175C11.5962 24.1229 11.5939 24.1279 11.5922 24.1333L9.63477 30.3703H7.96084C5.24396 30.3703 3.03369 32.5807 3.03369 35.2975C3.03369 35.6858 3.34855 36.0006 3.73682 36.0006H22.9894C23.3777 36.0006 23.6926 35.6858 23.6926 35.2975C23.6926 32.5806 21.4822 30.3703 18.7655 30.3703H16.4601V26.6363C17.4447 26.9274 18.4562 27.1097 19.4792 27.174ZM22.7702 8.97889C22.9381 8.81092 23.1586 8.72696 23.3792 8.72696C23.5998 8.72696 23.8204 8.81092 23.9883 8.97882C24.3241 9.31464 24.3241 9.8611 23.9883 10.1969C23.6526 10.5327 23.1059 10.5327 22.7702 10.1969C22.4343 9.86117 22.4343 9.31471 22.7702 8.97889ZM15.816 15.1194C16.3584 15.1194 16.8684 15.3305 17.252 15.7138L17.2533 15.7152C17.9879 16.4504 18.0401 17.6128 17.4109 18.4093C16.9251 17.9746 16.4426 17.5186 15.9672 17.0432C15.477 16.5531 15.0074 16.0553 14.5605 15.554C14.9172 15.2726 15.3547 15.1194 15.816 15.1194ZM12.8039 24.9685C13.5249 25.4261 14.2778 25.8175 15.0538 26.1389V30.3703H11.1085L12.8039 24.9685ZM18.7653 31.7766C20.4661 31.7766 21.889 32.9886 22.2156 34.5944H4.51032C4.837 32.9886 6.25998 31.7766 7.9607 31.7766H18.7653ZM11.1565 21.8539C8.82519 19.5225 7.4342 16.5356 7.23986 13.4432C7.11097 11.3913 7.52167 9.45821 8.41457 7.79849C8.56236 8.57607 8.85859 9.44415 9.30423 10.3863C10.4516 12.8122 12.4648 15.5295 14.9729 18.0376C17.4811 20.5458 20.1983 22.559 22.6242 23.7063C23.5645 24.1511 24.4311 24.4469 25.2075 24.5951C20.9721 26.8622 15.1774 25.8748 11.1565 21.8539Z" fill="white"/>
<path d="M23.3901 3.75391C23.0019 3.75391 22.687 4.0687 22.687 4.45703C22.687 4.84537 23.0019 5.16016 23.3901 5.16016C25.8256 5.16016 27.8069 7.14149 27.8069 9.57691C27.8069 9.96524 28.1217 10.28 28.51 10.28C28.8983 10.28 29.2131 9.96524 29.2131 9.57691C29.2132 6.36609 26.601 3.75391 23.3901 3.75391Z" fill="white"/>
<path d="M23.3901 0C23.0019 0 22.687 0.314789 22.687 0.703125C22.687 1.09146 23.0019 1.40625 23.3901 1.40625C27.8953 1.40625 31.5605 5.07143 31.5605 9.57663C31.5605 9.96497 31.8754 10.2798 32.2636 10.2798C32.6519 10.2798 32.9668 9.96497 32.9668 9.57663C32.9668 4.29609 28.6707 0 23.3901 0Z" fill="white"/>
</g>
<defs>
<clipPath id="clip0">
<rect width="36" height="36" fill="white"/>
</clipPath>
</defs>
</svg>
