<svg width="36" height="36" viewBox="0 0 36 36" fill="none" xmlns="http://www.w3.org/2000/svg">
<g clip-path="url(#clip0)">
<path d="M-18.6834 10.3152L-10.0166 1.64841C-9.81299 1.4469 -9.53775 1.33204 -9.24961 1.33204H12.4173C12.855 1.33204 13.2515 1.59641 13.4183 2.00154C13.5873 2.40668 13.4942 2.87256 13.1843 3.18243L8.53464 7.83213H17.8341V-7.33472H14.5841C13.9861 -7.33472 13.5007 -7.82009 13.5007 -8.4181V-12.7514C13.5007 -13.2801 13.8842 -13.7329 14.4064 -13.8196L27.4065 -15.9862C27.7164 -16.0361 28.0414 -15.9494 28.284 -15.7436C28.5289 -15.54 28.6675 -15.2366 28.6675 -14.9181V-8.418C28.6675 -7.81999 28.1822 -7.33462 27.5842 -7.33462H20.0008V7.83223H25.4175C27.2094 7.83223 28.6675 9.29038 28.6675 11.0823V19.749C28.6675 21.5409 27.2094 22.9991 25.4175 22.9991H17.1993L22.6225 28.4223C23.461 26.5091 25.3676 25.1657 27.5842 25.1657C30.5699 25.1657 33.001 27.5968 33.001 30.5824C33.001 33.5681 30.5699 35.9992 27.5843 35.9992C24.7697 35.9992 22.4752 33.8303 22.2173 31.0807L14.1356 22.999H9.16738V25.2761C11.6373 25.779 13.5007 27.9673 13.5007 30.5824C13.5007 33.5681 11.0697 35.9992 8.084 35.9992C5.09832 35.9992 2.66729 33.5681 2.66729 30.5824C2.66729 27.9673 4.53281 25.7789 7.00072 25.2762V22.9991H2.03465L-6.04933 31.083C-6.3072 33.8305 -8.60174 35.9992 -11.4163 35.9992C-14.402 35.9992 -16.833 33.5682 -16.833 30.5825C-16.833 27.5969 -14.402 25.1658 -11.4163 25.1658C-9.19761 25.1658 -7.29085 26.5114 -6.45457 28.4245L-1.02913 22.9991H-9.24961C-11.0415 22.9991 -12.4997 21.5409 -12.4997 19.749V12.1656H-17.9164C-18.354 12.1656 -18.7505 11.9012 -18.9174 11.496C-19.0864 11.0909 -18.9932 10.625 -18.6834 10.3152ZM24.3342 30.5847C24.3364 32.3743 25.7946 33.8326 27.5843 33.8326C29.3762 33.8326 30.8343 32.3744 30.8343 30.5825C30.8343 28.7907 29.3762 27.3325 27.5843 27.3325C25.7924 27.3325 24.3342 28.7907 24.3342 30.5825C24.3342 30.5824 24.3342 30.5824 24.3342 30.5847ZM-11.4163 27.3324C-13.2082 27.3324 -14.6663 28.7905 -14.6663 30.5824C-14.6663 32.3743 -13.2082 33.8325 -11.4163 33.8325C-9.62438 33.8325 -8.16623 32.3743 -8.16623 30.5824C-8.16623 28.7905 -9.62449 27.3324 -11.4163 27.3324ZM9.80215 3.4988H2.03455L-4.46555 9.99889H3.30206L9.80215 3.4988ZM26.5009 -9.50138V-13.6398L15.6674 -11.8349V-9.50138H26.5009V-9.50138ZM4.83395 30.5824C4.83395 32.3743 6.29211 33.8325 8.084 33.8325C9.87589 33.8325 11.334 32.3743 11.334 30.5824C11.334 28.7905 9.87589 27.3324 8.084 27.3324C6.29211 27.3324 4.83395 28.7907 4.83395 30.5824ZM-10.333 19.749C-10.333 20.347 -9.84762 20.8324 -9.24961 20.8324H25.4175C26.0155 20.8324 26.5009 20.347 26.5009 19.749V11.0823C26.5009 10.4843 26.0155 9.99889 25.4175 9.99889H6.36787L4.51748 11.8493C4.31384 12.0508 4.0386 12.1657 3.75047 12.1657H-10.3331V19.749H-10.333ZM-7.52922 9.99889L-1.02913 3.4988H-8.80111L-15.3012 9.99889H-7.52922Z" fill="white"/>
<path d="M1.58458 18.6655C0.986575 18.6655 0.501202 18.1801 0.501202 17.5821V15.4154C0.501202 14.8174 0.986575 14.332 1.58458 14.332C2.18259 14.332 2.66797 14.8174 2.66797 15.4154V17.5821C2.66787 18.1801 2.18259 18.6655 1.58458 18.6655Z" fill="white"/>
<path d="M22 12.4549V6.49999C22 5.11929 20.8807 4 19.5 4C18.1193 4 17 5.11929 17 6.49999V12.4548C16.2328 13.1415 15.75 14.1394 15.75 15.25C15.75 17.3211 17.4289 19 19.5 19C21.5711 19 23.25 17.3211 23.25 15.25C23.25 14.1394 22.7672 13.1415 22 12.4549ZM19.5 17.75C18.1193 17.75 17 16.6307 17 15.25C17 14.5282 17.3059 13.8586 17.8337 13.3863L18.25 13.0136V6.49999C18.25 5.80964 18.8097 5.24998 19.5 5.24998C20.1904 5.24998 20.75 5.80961 20.75 6.49999V13.0136L21.1664 13.3863C21.6942 13.8586 22 14.5282 22 15.25C22 16.6307 20.8807 17.75 19.5 17.75Z" fill="#EB8E24"/>
<path d="M20.125 9H18.875V16.5H20.125V9Z" fill="#EB8E24"/>
<path d="M19.5 17.125C20.5355 17.125 21.375 16.2855 21.375 15.25C21.375 14.2145 20.5355 13.375 19.5 13.375C18.4645 13.375 17.625 14.2145 17.625 15.25C17.625 16.2855 18.4645 17.125 19.5 17.125Z" fill="#EB8E24"/>
</g>
<defs>
<clipPath id="clip0">
<rect width="36" height="36" fill="white"/>
</clipPath>
</defs>
</svg>
