<svg width="36" height="36" viewBox="0 0 36 36" fill="none" xmlns="http://www.w3.org/2000/svg">
<path d="M0.219724 18.2186L6.21958 12.2187C6.36056 12.0792 6.5511 11.9997 6.75057 11.9997H21.7503C22.0532 11.9997 22.3277 12.1827 22.4432 12.4632C22.5602 12.7436 22.4958 13.0662 22.2812 13.2807L19.0623 16.4996H25.5002V5.99982H23.2503C22.8363 5.99982 22.5003 5.6638 22.5003 5.24981V2.24991C22.5003 1.88394 22.7658 1.57043 23.1272 1.51045L32.1271 0.0105039C32.3416 -0.0240188 32.5666 0.0360269 32.7345 0.178477C32.9041 0.319451 33 0.52947 33 0.749966V5.24988C33 5.66387 32.664 5.99989 32.25 5.99989H27.0002V16.4997H30.7501C31.9906 16.4997 33 17.5091 33 18.7496V24.7495C33 25.99 31.9906 26.9994 30.7501 26.9994H25.0607L28.8151 30.7538C29.3956 29.4294 30.7156 28.4994 32.25 28.4994C34.317 28.4994 36 30.1823 36 32.2493C36 34.3162 34.317 35.9992 32.2501 35.9992C30.3016 35.9992 28.7132 34.4977 28.5346 32.5942L22.9398 26.9994H19.5004V28.5758C21.2103 28.9239 22.5003 30.4388 22.5003 32.2493C22.5003 34.3162 20.8173 35.9992 18.7504 35.9992C16.6834 35.9992 15.0005 34.3162 15.0005 32.2493C15.0005 30.4388 16.2919 28.9238 18.0004 28.5759V26.9994H14.5625L8.96608 32.5958C8.78756 34.4978 7.19909 35.9993 5.25063 35.9993C3.18369 35.9993 1.50072 34.3163 1.50072 32.2494C1.50072 30.1824 3.18369 28.4994 5.25063 28.4994C6.78657 28.4994 8.10659 29.4309 8.68553 30.7554L12.4415 26.9994H6.75057C5.51007 26.9994 4.50062 25.99 4.50062 24.7495V19.4996H0.750714C0.447743 19.4996 0.17325 19.3165 0.0577284 19.0361C-0.0592693 18.7556 0.00520494 18.4331 0.219724 18.2186ZM30.0001 32.2508C30.0016 33.4898 31.0111 34.4993 32.2501 34.4993C33.4906 34.4993 34.5001 33.4899 34.5001 32.2494C34.5001 31.0089 33.4906 29.9994 32.2501 29.9994C31.0096 29.9994 30.0001 31.0089 30.0001 32.2494C30.0001 32.2493 30.0001 32.2493 30.0001 32.2508ZM5.25063 29.9993C4.01013 29.9993 3.00067 31.0088 3.00067 32.2493C3.00067 33.4898 4.01013 34.4992 5.25063 34.4992C6.49112 34.4992 7.50058 33.4898 7.50058 32.2493C7.50058 31.0088 6.49105 29.9993 5.25063 29.9993ZM19.9398 13.4997H14.5624L10.0625 17.9996H15.4399L19.9398 13.4997ZM31.5001 4.49987V1.6349L24.0002 2.8844V4.49987H31.5001V4.49987ZM16.5004 32.2493C16.5004 33.4898 17.5099 34.4992 18.7504 34.4992C19.9909 34.4992 21.0003 33.4898 21.0003 32.2493C21.0003 31.0088 19.9909 29.9993 18.7504 29.9993C17.5099 29.9993 16.5004 31.0089 16.5004 32.2493ZM6.00057 24.7495C6.00057 25.1635 6.33658 25.4995 6.75057 25.4995H30.7501C31.1641 25.4995 31.5001 25.1635 31.5001 24.7495V18.7496C31.5001 18.3356 31.1641 17.9996 30.7501 17.9996H17.5623L16.2813 19.2806C16.1403 19.4201 15.9498 19.4996 15.7503 19.4996H6.00049V24.7495H6.00057ZM7.94157 17.9996L12.4415 13.4997H7.06107L2.56115 17.9996H7.94157Z" fill="white"/>
<path d="M11.2505 24C10.8365 24 10.5005 23.6639 10.5005 23.25V21.75C10.5005 21.336 10.8365 21 11.2505 21C11.6645 21 12.0005 21.336 12.0005 21.75V23.25C12.0005 23.6639 11.6645 24 11.2505 24Z" fill="white"/>
<path d="M24.7501 19.5H29.25C29.664 19.5 30 19.836 30 20.25V23.25C30 23.664 29.664 24 29.25 24H24.7501C24.3361 24 24.0001 23.664 24.0001 23.25V20.25C24.0001 19.836 24.3361 19.5 24.7501 19.5ZM25.5001 22.5H28.5001V21H25.5001V22.5Z" fill="white"/>
<path d="M8.25048 24C7.83649 24 7.50047 23.6639 7.50047 23.25V21.75C7.50047 21.336 7.83649 21 8.25048 21C8.66447 21 9.00049 21.336 9.00049 21.75V23.25C9.00049 23.6639 8.66447 24 8.25048 24Z" fill="white"/>
<path d="M14.2505 24C13.8365 24 13.5005 23.6639 13.5005 23.25V21.75C13.5005 21.336 13.8365 21 14.2505 21C14.6645 21 15.0005 21.336 15.0005 21.75V23.25C15.0004 23.6639 14.6645 24 14.2505 24Z" fill="white"/>
</svg>
