<svg width="24" height="24" viewBox="0 0 24 24" fill="none" xmlns="http://www.w3.org/2000/svg">
<path d="M6.18591 14.7435L11.4359 20.7435C11.5784 20.9055 11.7839 21 11.9999 21C12.2159 21 12.4214 20.9055 12.5639 20.7435L17.8139 14.7435C18.0074 14.5215 18.0554 14.208 17.9324 13.9395C17.8109 13.6725 17.5439 13.5 17.2499 13.5L14.2499 13.5L14.2499 3.75C14.2499 3.336 13.9139 3 13.4999 3L10.4999 3C10.0859 3 9.74991 3.336 9.74991 3.75L9.74991 13.5L6.74991 13.5C6.45591 13.5 6.18891 13.671 6.06741 13.9395C5.94591 14.208 5.99091 14.523 6.18591 14.7435Z" fill="white"/>
</svg>
