<svg width="36" height="36" viewBox="0 0 36 36" fill="none" xmlns="http://www.w3.org/2000/svg">
<g clip-path="url(#clip0)">
<path d="M21.7803 18.2186L15.7804 12.2187C15.6394 12.0792 15.4489 11.9997 15.2494 11.9997H0.249744C-0.0532265 11.9997 -0.327721 12.1827 -0.443242 12.4632C-0.56024 12.7436 -0.495765 13.0662 -0.281245 13.2807L2.93767 16.4996H-3.50023V5.99982H-1.25027C-0.836282 5.99982 -0.500265 5.6638 -0.500265 5.24981V2.24991C-0.500265 1.88394 -0.76576 1.57043 -1.12723 1.51045L-10.1271 0.0105039C-10.3416 -0.0240188 -10.5666 0.0360269 -10.7345 0.178477C-10.9041 0.319451 -11 0.52947 -11 0.749966V5.24988C-11 5.66387 -10.664 5.99989 -10.25 5.99989H-5.00018V16.4997H-8.75008C-9.99058 16.4997 -11 17.5091 -11 18.7496V24.7495C-11 25.99 -9.99058 26.9994 -8.75008 26.9994H-3.06071L-6.81512 30.7538C-7.39561 29.4294 -8.71556 28.4994 -10.25 28.4994C-12.317 28.4994 -14 30.1823 -14 32.2493C-14 34.3162 -12.317 35.9992 -10.2501 35.9992C-8.30164 35.9992 -6.71317 34.4977 -6.53465 32.5942L-0.93978 26.9994H2.49963V28.5758C0.789734 28.9239 -0.500265 30.4388 -0.500265 32.2493C-0.500265 34.3162 1.1827 35.9992 3.24964 35.9992C5.31657 35.9992 6.99954 34.3162 6.99954 32.2493C6.99954 30.4388 5.70807 28.9238 3.99958 28.5759V26.9994H7.43751L13.0339 32.5958C13.2124 34.4978 14.8009 35.9992 16.7494 35.9992C18.8163 35.9992 20.4993 34.3163 20.4993 32.2493C20.4993 30.1824 18.8163 28.4994 16.7494 28.4994C15.2134 28.4994 13.8934 29.4309 13.3145 30.7554L9.55852 26.9994H15.2494C16.4899 26.9994 17.4994 25.99 17.4994 24.7495V19.4995H21.2493C21.5523 19.4995 21.8268 19.3165 21.9423 19.0361C22.0593 18.7556 21.9948 18.4331 21.7803 18.2186ZM-8.00014 32.2508C-8.00162 33.4898 -9.01114 34.4993 -10.2501 34.4993C-11.4906 34.4993 -12.5001 33.4898 -12.5001 32.2493C-12.5001 31.0088 -11.4906 29.9994 -10.2501 29.9994C-9.0096 29.9994 -8.00014 31.0088 -8.00014 32.2493C-8.00014 32.2493 -8.00014 32.2493 -8.00014 32.2508ZM16.7494 29.9993C17.9899 29.9993 18.9993 31.0088 18.9993 32.2493C18.9993 33.4898 17.9899 34.4992 16.7494 34.4992C15.5089 34.4992 14.4994 33.4898 14.4994 32.2493C14.4994 31.0088 15.5089 29.9993 16.7494 29.9993ZM2.06018 13.4997H7.43758L11.9375 17.9996H6.5601L2.06018 13.4997ZM-9.50009 4.49987V1.6349L-2.00021 2.8844V4.49987H-9.50009ZM5.4996 32.2493C5.4996 33.4898 4.49014 34.4992 3.24964 34.4992C2.00914 34.4992 0.999682 33.4898 0.999682 32.2493C0.999682 31.0088 2.00914 29.9993 3.24964 29.9993C4.49014 29.9993 5.4996 31.0088 5.4996 32.2493ZM15.9994 24.7495C15.9994 25.1635 15.6634 25.4995 15.2494 25.4995H-8.75008C-9.16407 25.4995 -9.50009 25.1635 -9.50009 24.7495V18.7496C-9.50009 18.3356 -9.16407 17.9996 -8.75008 17.9996H4.43769L5.71868 19.2806C5.85966 19.4201 6.0502 19.4996 6.24967 19.4996H15.9995V24.7495H15.9994ZM14.0584 17.9996L9.55852 13.4997H14.9389L19.4388 17.9996H14.0584Z" fill="white"/>
<path d="M10.7495 23.999C11.1635 23.999 11.4995 23.663 11.4995 23.249V21.749C11.4995 21.335 11.1635 20.999 10.7495 20.999C10.3355 20.999 9.99951 21.335 9.99951 21.749V23.249C9.99951 23.663 10.3355 23.999 10.7495 23.999Z" fill="white"/>
<path d="M13.7495 23.999C14.1635 23.999 14.4995 23.663 14.4995 23.249V21.749C14.4995 21.335 14.1635 20.999 13.7495 20.999C13.3355 20.999 12.9995 21.335 12.9995 21.749V23.249C12.9995 23.663 13.3355 23.999 13.7495 23.999Z" fill="white"/>
<path d="M7.74952 23.999C8.16351 23.999 8.49953 23.663 8.49953 23.249V21.749C8.49953 21.335 8.16351 20.999 7.74952 20.999C7.33553 20.999 6.99951 21.335 6.99951 21.749V23.249C6.99958 23.663 7.33553 23.999 7.74952 23.999Z" fill="white"/>
<path d="M32.6667 9.01853V2.66666C32.6667 1.19391 31.4727 0 30 0C28.5273 0 27.3333 1.19391 27.3333 2.66666V9.0185C26.515 9.75094 26 10.8153 26 12C26 14.2092 27.7909 16 30 16C32.2091 16 34 14.2092 34 12C34 10.8153 33.485 9.75094 32.6667 9.01853ZM30 14.6667C28.5273 14.6667 27.3333 13.4727 27.3333 12C27.3333 11.2301 27.6596 10.5159 28.2226 10.012L28.6667 9.61453V2.66666C28.6667 1.93028 29.2637 1.33331 30 1.33331C30.7364 1.33331 31.3334 1.93025 31.3334 2.66666V9.61453L31.7775 10.012C32.3404 10.5159 32.6667 11.2301 32.6667 12C32.6667 13.4727 31.4727 14.6667 30 14.6667Z" fill="#EB8E24"/>
<path d="M30.6664 5.33398H29.333V13.334H30.6664V5.33398Z" fill="#EB8E24"/>
<path d="M30 14C31.1046 14 32 13.1046 32 12C32 10.8954 31.1046 10 30 10C28.8954 10 28 10.8954 28 12C28 13.1046 28.8954 14 30 14Z" fill="#EB8E24"/>
</g>
<defs>
<clipPath id="clip0">
<rect width="36" height="36" fill="white"/>
</clipPath>
</defs>
</svg>
