<svg width="36" height="36" viewBox="0 0 36 36" fill="none" xmlns="http://www.w3.org/2000/svg">
<path d="M24.2483 7.9335C22.4078 5.5845 20.5042 3.159 18.9697 0.5535C18.7672 0.2115 18.3983 0 18 0C17.6017 0 17.2328 0.2115 17.0325 0.5535C15.498 3.15675 13.5945 5.5845 11.754 7.93125C8.0235 12.6878 4.5 17.181 4.5 22.5C4.5 29.9453 10.5547 36 18 36C25.4453 36 31.5 29.9453 31.5 22.5C31.5 17.1833 27.9788 12.69 24.2483 7.9335ZM18 33.75C11.7968 33.75 6.75 28.7032 6.75 22.5C6.75 17.9572 10.0395 13.7633 13.5248 9.3195C15.0458 7.38 16.6072 5.38875 18 3.25575C19.3928 5.38875 20.9543 7.38225 22.4753 9.32175C25.9605 13.7633 29.25 17.9595 29.25 22.5C29.25 28.7032 24.2032 33.75 18 33.75Z" fill="white"/>
<path d="M14.625 13.5C12.7642 13.5 11.25 15.0142 11.25 16.875C11.25 18.7358 12.7642 20.25 14.625 20.25C16.4858 20.25 18 18.7358 18 16.875C18 15.0142 16.4858 13.5 14.625 13.5ZM14.625 18C14.004 18 13.5 17.496 13.5 16.875C13.5 16.254 14.004 15.75 14.625 15.75C15.246 15.75 15.75 16.254 15.75 16.875C15.75 17.496 15.246 18 14.625 18Z" fill="white"/>
<path d="M21.375 24.75C19.5142 24.75 18 26.2642 18 28.125C18 29.9858 19.5142 31.5 21.375 31.5C23.2358 31.5 24.75 29.9858 24.75 28.125C24.75 26.2642 23.2358 24.75 21.375 24.75ZM21.375 29.25C20.7562 29.25 20.25 28.7438 20.25 28.125C20.25 27.5062 20.7562 27 21.375 27C21.9938 27 22.5 27.5062 22.5 28.125C22.5 28.7438 21.9938 29.25 21.375 29.25Z" fill="white"/>
<path d="M24.4188 16.08C23.9801 15.6413 23.2668 15.6413 22.8281 16.08L11.5781 27.33C11.1393 27.7688 11.1393 28.482 11.5781 28.9208C11.7986 29.139 12.0866 29.2493 12.3746 29.2493C12.6626 29.2493 12.9506 29.139 13.1688 28.9208L24.4188 17.6708C24.8576 17.232 24.8576 16.5188 24.4188 16.08Z" fill="white"/>
</svg>
