<svg width="36" height="36" viewBox="0 0 36 36" fill="none" xmlns="http://www.w3.org/2000/svg">
<g clip-path="url(#clip0)">
<path d="M-14.7803 18.2186L-8.78042 12.2187C-8.63944 12.0792 -8.4489 11.9997 -8.24943 11.9997H6.75026C7.05323 11.9997 7.32772 12.1827 7.44324 12.4632C7.56024 12.7436 7.49576 13.0662 7.28125 13.2807L4.06233 16.4996H10.5002V5.99982H8.25027C7.83628 5.99982 7.50026 5.6638 7.50026 5.24981V2.24991C7.50026 1.88394 7.76576 1.57043 8.12723 1.51045L17.1271 0.0105039C17.3416 -0.0240188 17.5666 0.0360268 17.7345 0.178477C17.9041 0.319451 18 0.52947 18 0.749966V5.24988C18 5.66387 17.664 5.99989 17.25 5.99989H12.0002V16.4997H15.7501C16.9906 16.4997 18 17.5091 18 18.7496V24.7495C18 25.99 16.9906 26.9994 15.7501 26.9994H10.0607L13.8151 30.7538C14.3956 29.4294 15.7156 28.4994 17.25 28.4994C19.317 28.4994 21 30.1823 21 32.2493C21 34.3162 19.317 35.9992 17.2501 35.9992C15.3016 35.9992 13.7132 34.4977 13.5346 32.5942L7.93978 26.9994H4.50037V28.5758C6.21027 28.9239 7.50026 30.4388 7.50026 32.2493C7.50026 34.3162 5.8173 35.9992 3.75036 35.9992C1.68343 35.9992 0.000459591 34.3162 0.000459591 32.2493C0.000459591 30.4388 1.29193 28.9238 3.00042 28.5759V26.9994H-0.437509L-6.03392 32.5958C-6.21244 34.4978 -7.80091 35.9992 -9.74937 35.9992C-11.8163 35.9992 -13.4993 34.3163 -13.4993 32.2493C-13.4993 30.1824 -11.8163 28.4994 -9.74937 28.4994C-8.21343 28.4994 -6.89341 29.4309 -6.31447 30.7554L-2.55852 26.9994H-8.24943C-9.48993 26.9994 -10.4994 25.99 -10.4994 24.7495V19.4996H-14.2493C-14.5523 19.4996 -14.8268 19.3165 -14.9423 19.0361C-15.0593 18.7556 -14.9948 18.4331 -14.7803 18.2186ZM15.0001 32.2508C15.0016 33.4898 16.0111 34.4993 17.2501 34.4993C18.4906 34.4993 19.5001 33.4898 19.5001 32.2493C19.5001 31.0088 18.4906 29.9994 17.2501 29.9994C16.0096 29.9994 15.0001 31.0088 15.0001 32.2493C15.0001 32.2493 15.0001 32.2493 15.0001 32.2508ZM-9.74937 29.9993C-10.9899 29.9993 -11.9993 31.0088 -11.9993 32.2493C-11.9993 33.4898 -10.9899 34.4992 -9.74937 34.4992C-8.50888 34.4992 -7.49942 33.4898 -7.49942 32.2493C-7.49942 31.0088 -8.50895 29.9993 -9.74937 29.9993ZM4.93981 13.4997H-0.437579L-4.93749 17.9996H0.439904L4.93981 13.4997ZM16.5001 4.49987V1.6349L9.00021 2.8844V4.49987H16.5001V4.49987ZM1.50041 32.2493C1.50041 33.4898 2.50986 34.4992 3.75036 34.4992C4.99086 34.4992 6.00032 33.4898 6.00032 32.2493C6.00032 31.0088 4.99086 29.9993 3.75036 29.9993C2.50986 29.9993 1.50041 31.0088 1.50041 32.2493ZM-8.99943 24.7495C-8.99943 25.1635 -8.66342 25.4995 -8.24943 25.4995H15.7501C16.1641 25.4995 16.5001 25.1635 16.5001 24.7495V18.7496C16.5001 18.3356 16.1641 17.9996 15.7501 17.9996H2.56231L1.28132 19.2806C1.14034 19.4201 0.949799 19.4996 0.750326 19.4996H-8.99951V24.7495H-8.99943ZM-7.05843 17.9996L-2.55852 13.4997H-7.93893L-12.4388 17.9996H-7.05843Z" fill="white"/>
<path d="M-0.749522 23.999C-1.16351 23.999 -1.49953 23.663 -1.49953 23.249V21.749C-1.49953 21.335 -1.16351 20.999 -0.749522 20.999C-0.33553 20.999 0.000488281 21.335 0.000488281 21.749V23.249C0.00041797 23.663 -0.33553 23.999 -0.749522 23.999Z" fill="white"/>
<g clip-path="url(#clip1)">
<path d="M30.9023 12.1006C30.582 11.7803 30.0626 11.7803 29.7422 12.1006C29.4219 12.421 29.4219 12.9403 29.7422 13.2607C32.075 15.5934 33.3596 18.6971 33.3596 22.0001C33.3596 25.3031 32.075 28.4068 29.7422 30.7395C29.4219 31.0598 29.4219 31.5792 29.7422 31.8996C30.0631 32.2205 30.5825 32.2194 30.9023 31.8996C33.5449 29.257 35.0003 25.7413 35.0003 22.0001C35.0003 18.2589 33.5449 14.7432 30.9023 12.1006V12.1006Z" fill="white"/>
<path d="M28.4179 14.584C28.0976 14.2637 27.5782 14.2637 27.2578 14.584C26.9375 14.9043 26.9375 15.4237 27.2578 15.7441C28.9276 17.4137 29.8472 19.6354 29.8472 21.9996C29.8472 24.3639 28.9277 26.5854 27.2578 28.2551C26.9375 28.5755 26.9375 29.0949 27.2578 29.4152C27.5781 29.7355 28.0975 29.7356 28.4179 29.4152C30.3976 27.4356 31.4879 24.8021 31.4879 21.9995C31.4879 19.197 30.3976 16.5635 28.4179 14.584V14.584Z" fill="white"/>
<path d="M25.9321 17.0703C25.6117 16.75 25.0923 16.75 24.772 17.0703C24.4516 17.3907 24.4517 17.9101 24.772 18.2304C25.7783 19.2365 26.3324 20.5754 26.3324 22.0002C26.3324 23.425 25.7783 24.7639 24.772 25.77C24.4516 26.0903 24.4516 26.6098 24.772 26.9301C25.0923 27.2504 25.6117 27.2505 25.9321 26.9301C27.2482 25.6141 27.973 23.8633 27.973 22.0002C27.973 20.1371 27.2482 18.3864 25.9321 17.0703V17.0703Z" fill="white"/>
<path d="M21.0002 18.543C19.0944 18.543 17.5439 20.0935 17.5439 21.9992C17.5439 23.905 19.0944 25.4555 21.0002 25.4555C22.9059 25.4555 24.4564 23.905 24.4564 21.9992C24.4564 20.0935 22.906 18.543 21.0002 18.543ZM21.0002 23.8148C19.999 23.8148 19.1846 23.0003 19.1846 21.9992C19.1846 20.9981 19.9991 20.1836 21.0002 20.1836C22.0013 20.1836 22.8158 20.9981 22.8158 21.9992C22.8158 23.0003 22.0014 23.8148 21.0002 23.8148Z" fill="white"/>
</g>
</g>
<defs>
<clipPath id="clip0">
<rect width="36" height="36" fill="white"/>
</clipPath>
<clipPath id="clip1">
<rect width="28" height="28" fill="white" transform="translate(21 7)"/>
</clipPath>
</defs>
</svg>
