<svg width="36" height="36" viewBox="0 0 36 36" fill="none" xmlns="http://www.w3.org/2000/svg">
<path d="M21.7006 28.25H28.7069C30.7757 28.25 32.4601 26.5675 32.4601 24.5V24.05H32.8981C34.1948 24.05 35.25 22.9961 35.25 21.7V13.3C35.25 12.0039 34.1948 10.95 32.8981 10.95H32.4601V10.5C32.4601 8.43252 30.7757 6.75 28.7069 6.75H24.5032C23.9785 6.75 23.5525 7.17532 23.5525 7.7C23.5525 8.22468 23.9785 8.65 24.5032 8.65H28.7069C29.7279 8.65 30.5588 9.48048 30.5588 10.5V11.9C30.5588 12.4247 30.9849 12.85 31.5095 12.85H32.8981C33.147 12.85 33.3487 13.0519 33.3487 13.3V21.7C33.3487 21.9481 33.147 22.15 32.8981 22.15H31.5095C30.9849 22.15 30.5588 22.5753 30.5588 23.1V24.5C30.5588 25.5195 29.7279 26.35 28.7069 26.35H21.7006C21.176 26.35 20.75 26.7753 20.75 27.3C20.75 27.8247 21.176 28.25 21.7006 28.25Z" fill="white" stroke="white" stroke-width="0.5"/>
<path d="M4.5 28.25H10.1C10.6245 28.25 11.05 27.8245 11.05 27.3C11.05 26.7755 10.6245 26.35 10.1 26.35H4.5C3.48027 26.35 2.65 25.5197 2.65 24.5V10.5C2.65 9.48027 3.48027 8.65 4.5 8.65H14.3C14.8245 8.65 15.25 8.22447 15.25 7.7C15.25 7.17553 14.8245 6.75 14.3 6.75H4.5C2.43273 6.75 0.75 8.43273 0.75 10.5V24.5C0.75 26.5673 2.43273 28.25 4.5 28.25Z" fill="white" stroke="white" stroke-width="0.5"/>
<path d="M13.4863 31.6334L13.4869 31.6337C13.6346 31.7116 13.7963 31.7496 13.9544 31.7496C14.2553 31.7496 14.5519 31.614 14.7467 31.3593C14.7468 31.3591 14.747 31.359 14.7471 31.3588L26.292 16.3595L26.2922 16.3594C26.5237 16.058 26.566 15.6503 26.3978 15.3078L26.3973 15.3068C26.2277 14.9657 25.8802 14.7496 25.4999 14.7496H19.8215L21.8666 5.46382L21.8666 5.46351C21.9687 4.9972 21.7265 4.52375 21.2893 4.33209L21.2893 4.33207L21.2869 4.33105C20.8567 4.14783 20.3404 4.28555 20.067 4.67953L20.0669 4.67971L9.67792 19.6797C9.46576 19.9859 9.44206 20.3837 9.61372 20.7131L9.61427 20.7142C9.78777 21.0432 10.1276 21.2496 10.4999 21.2496H16.0386L13.0061 30.4353C12.8522 30.8993 13.0561 31.4053 13.4863 31.6334ZM12.4096 19.2496L18.8206 9.99214L17.5998 15.5338L17.5996 15.5347C17.5358 15.8297 17.6073 16.1394 17.7977 16.3758C17.9875 16.6116 18.275 16.7496 18.5774 16.7496H23.468L16.7466 25.4816L18.3706 20.5641C18.3706 20.5641 18.3706 20.564 18.3706 20.564C18.4726 20.2579 18.4205 19.9236 18.2325 19.6636C18.0446 19.4037 17.7444 19.2496 17.4224 19.2496H12.4096Z" fill="white" stroke="white" stroke-width="0.5"/>
</svg>
